<svg width="23" height="23" viewBox="0 0 23 23" fill="none" xmlns="http://www.w3.org/2000/svg">
<g id="icn bxs-star">
<path id="Vector" d="M20.623 8.41866C20.5653 8.24885 20.4592 8.09964 20.3177 7.98945C20.1763 7.87926 20.0056 7.81292 19.8268 7.79861L14.5977 7.3831L12.3349 2.37409C12.2628 2.21276 12.1456 2.07573 11.9974 1.97955C11.8492 1.88336 11.6763 1.83213 11.4996 1.83203C11.3229 1.83193 11.1499 1.88298 11.0016 1.979C10.8533 2.07502 10.7359 2.21192 10.6637 2.37317L8.40085 7.3831L3.1717 7.79861C2.99601 7.81253 2.82805 7.87677 2.68791 7.98364C2.54777 8.09052 2.44139 8.23551 2.3815 8.40126C2.3216 8.56701 2.31073 8.74651 2.35018 8.91828C2.38962 9.09005 2.47772 9.24682 2.60393 9.36983L6.46824 13.1369L5.10156 19.0549C5.06006 19.234 5.07336 19.4215 5.13974 19.593C5.20611 19.7645 5.32249 19.9121 5.47378 20.0166C5.62506 20.1211 5.80427 20.1777 5.98815 20.1791C6.17202 20.1805 6.35207 20.1266 6.50493 20.0244L11.4993 16.6949L16.4936 20.0244C16.6498 20.1282 16.8341 20.1816 17.0216 20.1774C17.2091 20.1733 17.3908 20.1119 17.5424 20.0014C17.6939 19.8909 17.808 19.7367 17.8692 19.5595C17.9305 19.3822 17.936 19.1904 17.8851 19.01L16.2074 13.1397L20.368 9.39551C20.6404 9.1497 20.7404 8.76629 20.623 8.41866Z" fill="#F3CD03"/>
</g>
</svg>
