<svg width="23" height="23" viewBox="0 0 23 23" fill="none" xmlns="http://www.w3.org/2000/svg">
<g id="icn bx-star">
<path id="Vector" d="M6.49772 13.1384L5.13104 19.0564C5.08872 19.2356 5.10143 19.4234 5.1675 19.5953C5.23357 19.7671 5.34993 19.9151 5.50139 20.0198C5.65285 20.1245 5.83237 20.1811 6.0165 20.1822C6.20062 20.1833 6.3808 20.1288 6.53349 20.0259L11.5278 16.6964L16.5222 20.0259C16.6784 20.1297 16.8627 20.1831 17.0502 20.1789C17.2377 20.1748 17.4194 20.1134 17.5709 20.0029C17.7225 19.8924 17.8365 19.7382 17.8978 19.5609C17.9591 19.3837 17.9646 19.1919 17.9136 19.0115L16.236 13.1412L20.3966 9.39701C20.5298 9.27702 20.625 9.12061 20.6703 8.94712C20.7156 8.77362 20.709 8.59065 20.6515 8.42083C20.5939 8.25102 20.4878 8.1018 20.3463 7.99164C20.2048 7.88148 20.0342 7.81521 19.8554 7.80102L14.6263 7.3846L12.3634 2.37558C12.2913 2.21429 12.174 2.07733 12.0257 1.98123C11.8774 1.88512 11.7045 1.83398 11.5278 1.83398C11.3511 1.83398 11.1782 1.88512 11.0299 1.98123C10.8817 2.07733 10.7644 2.21429 10.6922 2.37558L8.42942 7.3846L3.20027 7.8001C3.02457 7.81402 2.85661 7.87826 2.71647 7.98514C2.57634 8.09201 2.46996 8.237 2.41006 8.40275C2.35017 8.56851 2.33929 8.748 2.37874 8.91977C2.41819 9.09155 2.50629 9.24831 2.6325 9.37133L6.49772 13.1384ZM9.11459 9.17045C9.27831 9.15755 9.43555 9.10085 9.56982 9.00628C9.70408 8.91171 9.81044 8.78276 9.87773 8.63295L11.5278 4.98144L13.1779 8.63295C13.2452 8.78276 13.3516 8.91171 13.4859 9.00628C13.6201 9.10085 13.7774 9.15755 13.9411 9.17045L17.5843 9.45938L14.5841 12.1597C14.3236 12.3945 14.2199 12.7559 14.3153 13.0935L15.4646 17.1155L12.0378 14.8307C11.8874 14.7298 11.7104 14.6758 11.5292 14.6758C11.3481 14.6758 11.171 14.7298 11.0206 14.8307L7.43972 17.2183L8.40282 13.0485C8.43813 12.8952 8.43339 12.7353 8.38906 12.5843C8.34472 12.4333 8.26228 12.2962 8.14966 12.1863L5.3631 9.46947L9.11459 9.17045Z" fill="#F3CD03"/>
</g>
</svg>
